<?xml version="1.0" encoding="utf-8"?>
<!-- Svg Vector Icons : http://www.onlinewebfonts.com/icon -->
<!DOCTYPE svg PUBLIC "-//W3C//DTD SVG 1.1//EN" "http://www.w3.org/Graphics/SVG/1.1/DTD/svg11.dtd">
<svg version="1.1" xmlns="http://www.w3.org/2000/svg" xmlns:xlink="http://www.w3.org/1999/xlink" x="0px" y="0px" viewBox="0 0 256 256" enable-background="new 0 0 256 256" xml:space="preserve">
<metadata> Svg Vector Icons : http://www.onlinewebfonts.com/icon </metadata>
<g><g><g><g><path fill="#000000" d="M203.7,122.4c-0.8-10.2-1.6-20.4-2.4-30.6c-1-12.5-11.4-22.3-24.1-21.6c-4,0.2-7.9,1.6-11.2,3.7c-5.5-1.3-11.2-1.8-16.8-0.4c-0.5,0.1-1,0.3-1.4,0.4c-7.3-18.7-37.8-18.2-43.3,1.6c-11.7,12.6-26.3,22-42.9,27.3c-16.4,5.4-9.4,31.4,7.2,26c13.4-4.4,25.4-10.5,36.2-18.4c1.3,13.2,3.3,26.3,6.3,39.4c-18.3,25.6-26.4,53.8-21.3,86.3c2.6,17.1,28.6,9.8,26-7.2c-3.5-22.6,2.9-43.2,15.5-61.3c0.4,0,0.7,0,1.1,0c4.9,22.4,10.5,44.6,16.7,66.7c4.7,16.7,30.7,9.6,26-7.2c-7.3-25.8-13.8-51.8-19.1-78c0.6-3,0.6-6.3-0.2-9.9c-0.4-1.8-0.8-3.5-1.1-5.3c1.9,0.8,3.9,1.6,5.9,2.3c0.6,0.2,1.2,0.3,1.7,0.3c4.4,6.3,11.6,10.3,19.9,9.8C194.3,145.8,204.7,134.8,203.7,122.4z M151.6,116.4c-1.3-9.4-2-18.8-2.2-28.4c2.2-1,4.6-1.4,7-1.5c-0.8,2.5-1.1,5.1-0.9,7.9c0.7,8.8,1.4,17.6,2.1,26.5C155.5,119.6,153.5,118.1,151.6,116.4z"/><path fill="#000000" d="M91.9 32.8a22.8 22.8 0 1 0 45.6 0a22.8 22.8 0 1 0 -45.6 0z"/></g></g><g></g><g></g><g></g><g></g><g></g><g></g><g></g><g></g><g></g><g></g><g></g><g></g><g></g><g></g><g></g></g></g>
</svg>